<svg xmlns="http://www.w3.org/2000/svg" version="1.1" xmlns:xlink="http://www.w3.org/1999/xlink" xmlns:svgjs="http://svgjs.dev/svgjs" width="1500" height="1500" viewBox="0 0 1500 1500"><rect width="1500" height="1500" fill="#000000"></rect><g transform="matrix(0.6666666666666666,0,0,0.6666666666666666,249.39393939393938,376.82452373485836)"><svg viewBox="0 0 396 295" data-background-color="#ffffff" preserveAspectRatio="xMidYMid meet" height="1117" width="1500" xmlns="http://www.w3.org/2000/svg" xmlns:xlink="http://www.w3.org/1999/xlink"><g id="tight-bounds" transform="matrix(1,0,0,1,0.2400000000000091,0.3336152617056314)"><svg viewBox="0 0 395.52 294.3327694765887" height="294.3327694765887" width="395.52"><g><svg viewBox="0 0 395.52 294.3327694765887" height="294.3327694765887" width="395.52"><g transform="matrix(1,0,0,1,0,150.34262499672968)"><svg viewBox="0 0 395.52 143.990144479859" height="143.990144479859" width="395.52"><g id="textblocktransform"><svg viewBox="0 0 395.52 143.990144479859" height="143.990144479859" width="395.52" id="textblock"><g><svg viewBox="0 0 395.52 95.09393684823284" height="95.09393684823284" width="395.52"><g transform="matrix(1,0,0,1,0,0)"><svg width="395.52" viewBox="-0.4204147721943506 -21.723253649167077 223.2103275847674 53.66595342687205" height="95.09393684823284" data-palette-color="#768350"><path d="M32.309-21.144c1.321 0.276 1.835 0.934 1.542 1.973v0c-0.152 0.539-0.491 1.101-1.017 1.688-0.519 0.588-1.059 1.076-1.619 1.465v0c-0.554 0.391-1.035 0.622-1.443 0.694-0.415 0.07-0.843 0.043-1.286-0.082v0l-1.314-0.423c-0.443-0.125-0.801-0.192-1.076-0.2v0c-1.637-0.116-3.398-0.17-5.285-0.162v0c-0.032-0.009-0.401-0.027-1.107-0.053v0c-0.137-0.004-0.465-0.02-0.984-0.049-0.527-0.024-0.987-0.026-1.381-0.005-0.402 0.025-0.71 0.111-0.924 0.258v0c-0.403 0.226-0.698 0.669-0.885 1.33v0c-0.179 0.635-0.257 1.427-0.234 2.376 0.025 0.942 0.031 1.498 0.018 1.667v0c0.069 1.079 0.062 1.829-0.022 2.249v0c1.389-0.086 3.018-0.114 4.887-0.086 1.874 0.037 3.475 0.243 4.803 0.618v0c1.867 0.527 2.644 1.345 2.33 2.456v0c-0.141 0.5-0.529 1.091-1.164 1.77v0c-0.663 0.63-1.346 1.051-2.05 1.261-0.71 0.208-1.399 0.281-2.067 0.216-0.66-0.068-1.542-0.207-2.646-0.414v0c-0.186-0.053-0.466-0.114-0.842-0.186-0.375-0.071-0.692-0.126-0.951-0.164v0c-0.169-0.013-0.53-0.073-1.081-0.181-0.552-0.107-1.039-0.134-1.464-0.08v0c-0.529 0.058-0.859 0.111-0.989 0.157-0.131 0.046-0.225 0.172-0.284 0.377-0.058 0.205-0.157 0.496-0.298 0.872v0c-0.314 0.867-0.849 2.15-1.605 3.848v0l-0.415 0.953c-0.929 2.065-1.79 3.838-2.582 5.319-0.794 1.487-1.714 2.869-2.76 4.146v0c-0.711 0.825-1.617 1.643-2.719 2.454-1.097 0.819-2.044 1.117-2.839 0.892v0c-0.218-0.062-0.41-0.168-0.575-0.318v0c-0.491-0.443-0.531-1.393-0.12-2.85v0c0.268-0.95 0.84-2.361 1.714-4.233v0l0.451-1.047 2.748-6.862c0.585-1.338 1.008-2.344 1.268-3.019v0l-0.942 0.243c-1.724 0.538-2.901 0.719-3.53 0.542v0c-0.257-0.072-0.447-0.195-0.571-0.369v0c-0.235-0.371-0.299-0.746-0.192-1.125v0c0.188-0.667 0.744-1.297 1.666-1.888 0.916-0.594 1.774-1.034 2.575-1.32v0c0.346-0.145 0.714-0.249 1.106-0.311v0c0.71-0.208 1.247-0.441 1.611-0.699 0.362-0.251 0.646-0.742 0.852-1.474v0c0.152-0.539 0.209-1.171 0.171-1.895v0c-0.029-0.486-0.143-0.989-0.342-1.51-0.195-0.512-0.311-0.825-0.348-0.939v0c-0.263-0.76-0.449-1.367-0.557-1.82-0.112-0.461-0.101-0.929 0.033-1.404v0c0.107-0.379 0.324-0.778 0.65-1.199v0c0.729-0.889 1.721-1.533 2.977-1.933 1.254-0.394 2.825-0.72 4.713-0.977v0l1.44-0.207c2.899-0.477 5.569-0.773 8.012-0.886 2.443-0.114 4.757 0.068 6.943 0.546zM34.63 3.377l-2.052 3.024-0.597 0.88 2.729 3.595-0.018-1.47c-0.026-0.949-0.047-2.959-0.062-6.029zM41.224-6.418c-0.177 2.891-0.243 5.852-0.199 8.882 0.046 3.023 0.149 6.507 0.31 10.451v0c0.139 3.734 0.222 6.213 0.248 7.435v0c0.011 0.105-0.005 0.252-0.047 0.44v0c-0.174 0.774-0.756 1.344-1.747 1.71-0.991 0.365-1.951 0.444-2.881 0.235v0c-0.774-0.174-1.323-0.515-1.645-1.025v0c-0.707-1.204-1.474-2.37-2.3-3.499-0.82-1.127-1.918-2.535-3.296-4.223v0l-1.299-1.655c-1.994 2.586-3.514 4.486-4.559 5.701v0c-0.336 0.43-1.02 0.738-2.051 0.923-1.04 0.19-1.96 0.196-2.761 0.016v0c-0.898-0.201-1.282-0.592-1.152-1.171v0c0.035-0.156 0.127-0.337 0.276-0.542v0c1.495-2.158 3.245-4.629 5.249-7.411v0l1.557-2.234c-0.621-0.98-0.931-1.469-0.931-1.469v0c-0.17-0.277-0.223-0.559-0.159-0.845v0c0.123-0.546 0.591-0.988 1.404-1.325 0.821-0.342 1.682-0.494 2.583-0.456v0c2.371-3.349 4.657-6.778 6.858-10.288v0c0.224-0.421 0.719-0.723 1.484-0.907 0.765-0.184 1.546-0.237 2.343-0.161v0c0.581-0.034 1.064-0.007 1.447 0.078v0c0.898 0.201 1.32 0.648 1.268 1.34zM53.978 9.194l1.606-0.942c1.423-0.809 2.595-1.542 3.515-2.2 0.919-0.652 1.651-1.333 2.194-2.044v0c-1.687-0.731-4.167-1.888-7.441-3.469v0l-1.803 9.849c1.102-0.657 1.745-1.055 1.929-1.194zM62.354 16.302c0.339-0.48 0.959-0.838 1.86-1.073 0.902-0.243 1.745-0.302 2.529-0.179v0c1.073 0.169 1.557 0.593 1.45 1.27v0c-0.031 0.198-0.116 0.417-0.256 0.659v0c-1.822 2.912-3.305 5.776-4.45 8.592v0c-0.266 0.619-0.831 1.145-1.696 1.576v0c-0.389 0.371-0.939 0.652-1.651 0.843-0.717 0.184-1.399 0.225-2.044 0.124v0c-0.553-0.087-0.983-0.27-1.291-0.547-0.306-0.284-0.437-0.673-0.393-1.166v0c0.208-2.134-0.176-4.175-1.152-6.123-0.976-1.949-2.397-3.337-4.264-4.164v0l-1.359 7.024c-0.124 0.615-0.724 1.104-1.8 1.468-1.07 0.365-2.059 0.476-2.968 0.333v0c-0.487-0.077-0.865-0.231-1.132-0.462-0.262-0.223-0.362-0.529-0.301-0.918v0l1.205-6.694c-0.375-0.363-0.532-0.738-0.47-1.127v0c0.072-0.454 0.381-0.855 0.928-1.2v0c1.096-5.888 2.221-11.751 3.376-17.589v0c0.141-0.68 0.695-1.2 1.663-1.56 0.975-0.366 1.918-0.478 2.826-0.335v0c0.685 0.108 1.146 0.349 1.384 0.724v0c3.384 1.525 6.884 3.172 10.5 4.943v0c0.607-0.039 1.026-0.041 1.256-0.005v0c0.553 0.087 0.962 0.276 1.226 0.568 0.271 0.292 0.368 0.682 0.292 1.169v0c-0.209 1.33-0.841 2.49-1.894 3.478-1.052 0.982-2.466 2.031-4.241 3.149v0l-1.107 0.727c-1.8 1.276-3.524 2.384-5.17 3.326v0c2.543 1.163 4.454 2.979 5.733 5.448v0c0.184-0.309 0.654-1.068 1.411-2.278zM93.394 1.397c0.058 0.105 0.108 0.291 0.152 0.556v0c0.037 4.066 0.181 10.5 0.43 19.302v0l0.145 5.654c0.037 0.726-0.421 1.328-1.374 1.807-0.952 0.478-1.92 0.674-2.903 0.588v0c-0.584-0.051-1.072-0.218-1.461-0.5-0.39-0.282-0.579-0.687-0.566-1.215v0c-0.025-4.586-0.103-9.328-0.234-14.225v0c-1.05 1.822-2.088 3.494-3.112 5.017v0c-0.156 0.254-0.425 0.495-0.806 0.722v0c-0.46 0.361-1.02 0.636-1.679 0.826-0.659 0.19-1.284 0.258-1.876 0.206v0c-1.016-0.089-1.656-0.494-1.921-1.213v0c-0.476-1.36-0.943-2.82-1.401-4.379v0l-0.369 1.453c-0.671 2.678-1.553 6.131-2.648 10.358v0c-0.16 0.682-0.761 1.231-1.801 1.648-1.048 0.423-2.046 0.593-2.997 0.51v0c-0.525-0.046-0.924-0.182-1.199-0.407-0.275-0.225-0.36-0.547-0.256-0.966v0c2.742-11.31 4.843-19.638 6.304-24.984v0c0.194-0.679 0.805-1.238 1.834-1.676 1.022-0.439 1.977-0.602 2.864-0.491v0c0.53-0.02 0.975 0.059 1.334 0.238 0.365 0.186 0.565 0.461 0.6 0.826v0c0.491 3.771 1.209 7.251 2.154 10.439v0c1.688-3.057 3.318-6.217 4.889-9.478v0c0.248-0.534 0.804-0.963 1.669-1.289 0.871-0.318 1.715-0.441 2.533-0.369v0c0.983 0.086 1.548 0.434 1.695 1.042zM120.042 14.069l1.411-1.215c1.255-1.051 2.275-1.983 3.062-2.796 0.787-0.806 1.384-1.608 1.792-2.405v0c-1.791-0.416-4.439-1.108-7.943-2.076v0l-0.005 10.014c0.966-0.844 1.527-1.351 1.683-1.522zM129.56 19.557c0.247-0.533 0.792-0.996 1.636-1.39 0.844-0.401 1.662-0.611 2.455-0.631v0c1.086-0.027 1.638 0.303 1.655 0.99v0c0.005 0.2-0.039 0.431-0.133 0.693v0c-1.269 3.192-2.213 6.276-2.834 9.253v0c-0.151 0.657-0.612 1.275-1.385 1.854v0c-0.316 0.435-0.807 0.81-1.473 1.127-0.673 0.31-1.335 0.473-1.988 0.488v0c-0.56 0.014-1.016-0.088-1.368-0.306-0.352-0.225-0.551-0.583-0.597-1.076v0c-0.179-2.136-0.924-4.075-2.233-5.817-1.31-1.742-2.957-2.852-4.943-3.33v0l-0.075 7.154c-0.011 0.627-0.514 1.216-1.507 1.768-0.987 0.551-1.94 0.838-2.86 0.86v0c-0.493 0.012-0.892-0.071-1.196-0.25-0.298-0.173-0.451-0.456-0.461-0.849v0l-0.017-6.802c-0.434-0.289-0.656-0.631-0.665-1.024v0c-0.011-0.46 0.221-0.909 0.697-1.348v0c0.02-5.989 0.073-11.959 0.161-17.909v0c0.016-0.694 0.468-1.305 1.355-1.834 0.894-0.535 1.801-0.814 2.721-0.837v0c0.693-0.017 1.19 0.138 1.492 0.464v0c3.603 0.892 7.342 1.884 11.216 2.976v0c0.59-0.148 1.001-0.225 1.235-0.231v0c0.56-0.014 0.996 0.099 1.308 0.339 0.319 0.239 0.485 0.605 0.497 1.098v0c0.033 1.346-0.38 2.6-1.238 3.761-0.859 1.155-2.061 2.441-3.606 3.86v0l-0.958 0.913c-1.542 1.578-3.038 2.979-4.488 4.202v0c2.711 0.687 4.917 2.13 6.618 4.329v0c0.125-0.337 0.451-1.168 0.979-2.495zM150.293 18.203c0.6-1.831 0.821-3.679 0.663-5.546v0c-0.125-1.475-0.493-2.805-1.102-3.991-0.616-1.185-1.496-2.128-2.639-2.827v0c-0.768-0.457-1.481-0.657-2.139-0.601v0c-0.259 0.022-0.579 0.113-0.96 0.273v0c0.304 0.108 0.469 0.325 0.497 0.65v0c0.017 0.199-0.03 0.434-0.141 0.704v0c-0.628 1.505-1.083 3.12-1.365 4.843-0.282 1.723-0.35 3.439-0.205 5.146v0c0.167 1.966 0.621 3.808 1.363 5.525v0c0.475 0.95 0.95 1.686 1.422 2.207v0c0.212 0.209 0.422 0.356 0.63 0.438v0c0.894-0.738 1.676-1.728 2.347-2.969 0.67-1.248 1.213-2.532 1.629-3.852zM148.139 1.014c1.629 0.189 3.063 0.777 4.305 1.761 1.241 0.985 2.219 2.213 2.933 3.685 0.721 1.471 1.151 3.027 1.29 4.668v0c0.164 1.933-0.042 3.948-0.62 6.044-0.584 2.097-1.459 4.051-2.623 5.863-1.164 1.812-2.508 3.278-4.032 4.398v0c-1.43 1.045-2.866 1.629-4.307 1.751v0c-1.441 0.123-2.738-0.212-3.889-1.005-1.158-0.791-2.053-2-2.687-3.625v0c-0.703-1.66-1.145-3.552-1.326-5.678v0c-0.109-1.282-0.115-2.536-0.019-3.762v0c-0.227 0.086-0.569 0.149-1.027 0.188v0c-1.116 0.095-1.706-0.236-1.771-0.994v0c-0.022-0.259-0.007-0.474 0.045-0.646v0c0.852-3.204 2.302-6.057 4.351-8.559 2.042-2.502 4.521-3.877 7.437-4.125v0c0.432-0.037 1.078-0.025 1.94 0.036zM173.746 15.153c0.483-1.865 0.586-3.724 0.31-5.577v0c-0.219-1.464-0.669-2.768-1.353-3.913-0.69-1.144-1.627-2.029-2.812-2.654v0c-0.795-0.407-1.52-0.562-2.173-0.464v0c-0.257 0.038-0.571 0.149-0.941 0.332v0c0.31 0.089 0.489 0.294 0.537 0.618v0c0.03 0.198-0.002 0.435-0.096 0.712v0c-0.531 1.542-0.883 3.182-1.055 4.919-0.172 1.738-0.131 3.454 0.122 5.149v0c0.291 1.952 0.861 3.761 1.71 5.427v0c0.535 0.918 1.054 1.622 1.559 2.113v0c0.225 0.196 0.443 0.328 0.656 0.397v0c0.845-0.794 1.563-1.831 2.154-3.112 0.59-1.288 1.05-2.604 1.382-3.947zM170.507-1.866c1.637 0.086 3.107 0.581 4.408 1.486 1.301 0.904 2.355 2.068 3.16 3.491 0.812 1.422 1.34 2.948 1.584 4.577v0c0.286 1.919 0.208 3.943-0.236 6.071-0.45 2.13-1.199 4.136-2.246 6.018-1.047 1.882-2.295 3.43-3.746 4.644v0c-1.361 1.133-2.757 1.807-4.187 2.02v0c-1.431 0.214-2.746-0.038-3.945-0.756-1.206-0.716-2.176-1.866-2.911-3.447v0c-0.807-1.612-1.368-3.473-1.683-5.583v0c-0.19-1.273-0.276-2.524-0.257-3.753v0c-0.221 0.1-0.559 0.185-1.014 0.252v0c-1.108 0.165-1.718-0.128-1.83-0.879v0c-0.038-0.257-0.037-0.473 0.005-0.648v0c0.647-3.251 1.913-6.19 3.799-8.818 1.879-2.626 4.266-4.156 7.161-4.588v0c0.429-0.064 1.075-0.093 1.938-0.087zM191.448-7.333c0.66-0.201 1.199-0.225 1.618-0.071 0.417 0.147 0.9 0.502 1.449 1.064v0c0.339 0.367 0.538 0.694 0.596 0.982v0c0.144 0.712-0.222 1.225-1.098 1.537v0l-1.649 0.526c-1.535 0.548-2.352 0.832-2.45 0.852v0c0.491 5.267 0.96 9.834 1.408 13.702 0.447 3.868 0.995 7.665 1.644 11.39v0c0.058 0.458-0.059 0.835-0.353 1.132-0.288 0.289-0.707 0.489-1.256 0.6v0c-0.967 0.195-1.981 0.124-3.042-0.212-1.056-0.345-1.635-0.857-1.738-1.537v0c-0.591-3.438-1.103-6.966-1.534-10.586-0.431-3.62-0.879-7.831-1.344-12.633v0l-2.96 1.005c-0.446 0.117-0.797 0.161-1.055 0.131-0.258-0.03-0.53-0.168-0.819-0.417-0.28-0.243-0.57-0.517-0.87-0.824v0c-0.326-0.301-0.525-0.632-0.598-0.991v0c-0.058-0.288 0.001-0.568 0.178-0.842 0.184-0.268 0.495-0.481 0.932-0.637v0c0.686-0.24 1.483-0.52 2.391-0.839v0l2.403-0.832-0.824-8.535c-0.084-0.922 0.488-1.506 1.717-1.754v0c0.967-0.195 1.962-0.12 2.983 0.224 1.028 0.343 1.578 0.862 1.65 1.554v0l0.68 6.606c0.889-0.247 1.536-0.446 1.941-0.595zM213.172-4.869c-0.733-0.352-1.952-0.753-3.655-1.202-1.698-0.457-2.944-0.582-3.737-0.374v0c-0.638 0.167-0.874 0.57-0.707 1.209v0c0.058 0.219 0.238 0.579 0.542 1.078v0c0.41 0.671 1.085 1.232 2.023 1.681 0.933 0.458 2.132 0.954 3.595 1.487v0c1.202 0.429 1.981 0.735 2.339 0.916v0c1.716 0.839 3.093 1.556 4.131 2.152 1.039 0.596 2.043 1.352 3.015 2.27 0.971 0.917 1.606 1.946 1.905 3.087v0c0.201 0.767 0.22 1.614 0.057 2.539v0c-0.336 1.687-1.235 3.146-2.698 4.378-1.462 1.231-3.131 2.093-5.008 2.585v0c-0.638 0.167-1.289 0.29-1.95 0.367v0c-4.513 0.398-9.257-1.435-14.232-5.498v0c-0.268-0.233-0.44-0.495-0.516-0.785v0c-0.183-0.696 0.119-1.465 0.905-2.305 0.781-0.832 1.633-1.369 2.555-1.611v0c0.703-0.184 1.266-0.112 1.691 0.218v0c2.675 2.158 5.127 3.607 7.353 4.346v0c2.053 0.681 3.683 0.864 4.889 0.547v0c0.987-0.259 1.367-0.817 1.143-1.674v0c-0.157-0.6-0.591-1.282-1.302-2.047v0c-0.704-0.739-1.536-1.389-2.497-1.95-0.967-0.56-2.167-1.179-3.599-1.858v0l-1.576-0.765c-0.161-0.089-0.872-0.395-2.133-0.919v0c-1.023-0.407-1.909-0.802-2.658-1.184-0.742-0.384-1.403-0.842-1.983-1.372v0c-0.767-0.716-1.271-1.534-1.512-2.456v0c-0.376-1.432-0.107-2.905 0.805-4.419 0.906-1.513 2.097-2.7 3.572-3.563v0c0.944-0.551 1.878-0.948 2.8-1.19v0c1.715-0.45 3.48-0.489 5.294-0.117 1.815 0.378 3.735 1.05 5.759 2.014v0c0.341 0.145 0.553 0.375 0.637 0.692v0c0.159 0.606-0.179 1.326-1.016 2.158-0.836 0.833-1.731 1.374-2.686 1.625v0c-0.632 0.166-1.147 0.146-1.545-0.06z" opacity="1" transform="matrix(1,0,0,1,0,0)" fill="#ffffff" class="wordmark-text-0" data-fill-palette-color="primary" id="text-0"></path></svg></g></svg></g><g transform="matrix(1,0,0,1,118.31980799999998,126.85633943258628)"><svg viewBox="0 0 158.88038400000002 17.13380504727273" height="17.13380504727273" width="158.88038400000002"><g transform="matrix(1,0,0,1,0,0)"><svg width="158.88038400000002" viewBox="1.3 -37.15 439.96 47.45" height="17.13380504727273" data-palette-color="#556970"><path d="M10.55 0L6.5 0 6.5-22.05 1.3-22.05 1.3-25.5 6.5-25.5 6.5-29.55Q6.5-31.7 6.85-33.08 7.2-34.45 7.98-35.27 8.75-36.1 10-36.5 11.25-36.9 13.03-37 14.8-37.1 17.15-37.1L17.15-37.1 17.15-34Q15.1-34 13.8-33.85 12.5-33.7 11.8-33.33 11.1-32.95 10.83-32.2 10.55-31.45 10.55-30.25L10.55-30.25 10.55-25.5 17.15-25.5 17.15-22.05 10.55-22.05 10.55 0ZM32.75 0.4L32.75 0.4Q29.6 0.4 27.52 0.03 25.45-0.35 24.25-1.2 23.05-2.05 22.47-3.55 21.9-5.05 21.75-7.33 21.6-9.6 21.6-12.75L21.6-12.75Q21.6-15.9 21.75-18.18 21.9-20.45 22.47-21.95 23.05-23.45 24.25-24.3 25.45-25.15 27.52-25.53 29.6-25.9 32.75-25.9L32.75-25.9Q35.95-25.9 38-25.53 40.05-25.15 41.27-24.3 42.5-23.45 43.07-21.95 43.65-20.45 43.8-18.18 43.95-15.9 43.95-12.75L43.95-12.75Q43.95-9.6 43.8-7.33 43.65-5.05 43.07-3.55 42.5-2.05 41.27-1.2 40.05-0.35 38 0.03 35.95 0.4 32.75 0.4ZM32.75-3.05L32.75-3.05Q35.45-3.05 36.9-3.4 38.35-3.75 38.97-4.75 39.6-5.75 39.72-7.68 39.85-9.6 39.85-12.75L39.85-12.75Q39.85-15.9 39.72-17.82 39.6-19.75 38.97-20.75 38.35-21.75 36.9-22.1 35.45-22.45 32.75-22.45L32.75-22.45Q30.1-22.45 28.62-22.1 27.15-21.75 26.55-20.75 25.95-19.75 25.8-17.82 25.65-15.9 25.65-12.75L25.65-12.75Q25.65-9.6 25.8-7.68 25.95-5.75 26.55-4.75 27.15-3.75 28.62-3.4 30.1-3.05 32.75-3.05ZM55.6 0L51.5 0 51.5-25.5 55.15-25.5 55.35-20.6 55.65-20.6Q56.3-22.75 57.5-23.9 58.7-25.05 60.4-25.48 62.1-25.9 64.15-25.9L64.15-25.9 64.15-21.9Q60.7-21.9 58.85-20.8 57-19.7 56.3-17.4 55.6-15.1 55.6-11.6L55.6-11.6 55.6 0ZM85.69 0L81.59 0 81.59-37.15 85.69-37.15 85.69-22.15 85.94-22.15Q86.44-23.2 87.39-24.05 88.34-24.9 89.99-25.38 91.64-25.85 94.19-25.85L94.19-25.85Q96.99-25.85 98.72-25.28 100.44-24.7 101.37-23.5 102.29-22.3 102.59-20.43 102.89-18.55 102.89-15.95L102.89-15.95 102.89 0 98.84 0 98.84-14.55Q98.84-17.15 98.62-18.68 98.39-20.2 97.74-20.98 97.09-21.75 95.84-22 94.59-22.25 92.54-22.25L92.54-22.25Q90.09-22.25 88.69-21.63 87.29-21 86.64-19.83 85.99-18.65 85.84-16.98 85.69-15.3 85.69-13.15L85.69-13.15 85.69 0ZM121.94 0.4L121.94 0.4Q118.84 0.4 116.76 0 114.69-0.4 113.44-1.33 112.19-2.25 111.54-3.78 110.89-5.3 110.69-7.5 110.49-9.7 110.49-12.7L110.49-12.7Q110.49-16.25 110.79-18.78 111.09-21.3 112.16-22.88 113.24-24.45 115.54-25.18 117.84-25.9 121.74-25.9L121.74-25.9Q124.69-25.9 126.56-25.45 128.44-25 129.54-24.05 130.64-23.1 131.16-21.53 131.69-19.95 131.84-17.78 131.99-15.6 131.99-12.75L131.99-12.75 131.99-11.4 114.54-11.4Q114.54-8.8 114.79-7.15 115.04-5.5 115.81-4.6 116.59-3.7 118.26-3.35 119.94-3 122.84-3L122.84-3Q124.04-3 125.49-3.08 126.94-3.15 128.39-3.3 129.84-3.45 130.99-3.6L130.99-3.6 130.99-0.3Q129.94-0.1 128.41 0.05 126.89 0.2 125.21 0.3 123.54 0.4 121.94 0.4ZM128.99-14.3L128.04-13.45 128.04-14.8Q128.04-17.4 127.74-18.93 127.44-20.45 126.71-21.23 125.99-22 124.74-22.25 123.49-22.5 121.64-22.5L121.64-22.5Q119.24-22.5 117.84-22.18 116.44-21.85 115.74-21 115.04-20.15 114.79-18.55 114.54-16.95 114.54-14.3L114.54-14.3 128.99-14.3ZM146.34 0.4L146.34 0.4Q143.54 0.4 141.66-0.25 139.79-0.9 138.86-2.5 137.94-4.1 137.94-7L137.94-7Q137.94-9.9 138.61-11.58 139.29-13.25 140.99-13.95 142.69-14.65 145.74-14.65L145.74-14.65Q146.24-14.65 147.31-14.63 148.39-14.6 149.79-14.58 151.19-14.55 152.61-14.53 154.04-14.5 155.24-14.45L155.24-14.45 155.24-16.05Q155.24-18.3 154.96-19.58 154.69-20.85 153.84-21.48 152.99-22.1 151.46-22.28 149.94-22.45 147.44-22.45L147.44-22.45Q146.34-22.45 144.84-22.38 143.34-22.3 141.91-22.18 140.49-22.05 139.64-21.9L139.64-21.9 139.64-25.2Q141.54-25.55 143.91-25.73 146.29-25.9 148.84-25.9L148.84-25.9Q151.54-25.9 153.41-25.58 155.29-25.25 156.46-24.55 157.64-23.85 158.24-22.7 158.84-21.55 159.06-19.9 159.29-18.25 159.29-16.05L159.29-16.05 159.29 0 155.64 0 155.49-3.6 155.19-3.6Q154.39-1.85 152.91-0.98 151.44-0.1 149.69 0.15 147.94 0.4 146.34 0.4ZM147.84-2.95L147.84-2.95Q149.29-2.95 150.54-3.13 151.79-3.3 152.74-3.8 153.69-4.3 154.24-5.3L154.24-5.3Q154.79-6.35 155.01-7.58 155.24-8.8 155.24-10.45L155.24-10.45 155.24-11.75 146.74-11.75Q144.79-11.75 143.74-11.45 142.69-11.15 142.31-10.2 141.94-9.25 141.94-7.35L141.94-7.35Q141.94-5.5 142.39-4.55 142.84-3.6 144.11-3.28 145.39-2.95 147.84-2.95ZM172.03 0L167.93 0 167.93-37.15 172.03-37.15 172.03 0ZM186.83 0L182.78 0 182.78-22.05 177.63-22.05 177.63-25.5 182.78-25.5 182.78-32.9 186.83-32.9 186.83-25.5 192.93-25.5 192.93-22.05 186.83-22.05 186.83 0ZM202.63 0L198.53 0 198.53-37.15 202.63-37.15 202.63-22.15 202.88-22.15Q203.38-23.2 204.33-24.05 205.28-24.9 206.93-25.38 208.58-25.85 211.13-25.85L211.13-25.85Q213.93-25.85 215.65-25.28 217.38-24.7 218.3-23.5 219.23-22.3 219.53-20.43 219.83-18.55 219.83-15.95L219.83-15.95 219.83 0 215.78 0 215.78-14.55Q215.78-17.15 215.55-18.68 215.33-20.2 214.68-20.98 214.03-21.75 212.78-22 211.53-22.25 209.48-22.25L209.48-22.25Q207.03-22.25 205.63-21.63 204.23-21 203.58-19.83 202.93-18.65 202.78-16.98 202.63-15.3 202.63-13.15L202.63-13.15 202.63 0ZM238.28 10.3L238.28 10.3Q236.83 10.3 235.25 10.23 233.68 10.15 232.25 10.08 230.83 10 229.73 9.85L229.73 9.85 229.73 6.6Q231.38 6.65 232.75 6.73 234.13 6.8 235.3 6.83 236.48 6.85 237.43 6.85L237.43 6.85Q240.33 6.85 242 6.4 243.68 5.95 244.48 4.93 245.28 3.9 245.5 2.2 245.73 0.5 245.73-1.95L245.73-1.95 245.73-3.45 245.43-3.45Q245.03-2.45 244.08-1.6 243.13-0.75 241.48-0.25 239.83 0.25 237.18 0.25L237.18 0.25Q234.38 0.25 232.65-0.33 230.93-0.9 230.03-2.13 229.13-3.35 228.8-5.2 228.48-7.05 228.48-9.6L228.48-9.6 228.48-25.5 232.58-25.5 232.58-11.05Q232.58-8.45 232.78-6.9 232.98-5.35 233.65-4.58 234.33-3.8 235.58-3.55 236.83-3.3 238.83-3.3L238.83-3.3Q241.33-3.3 242.73-3.93 244.13-4.55 244.75-5.75 245.38-6.95 245.55-8.63 245.73-10.3 245.73-12.4L245.73-12.4 245.73-25.5 249.78-25.5 249.78-3.15Q249.78 0.5 249.4 3.08 249.03 5.65 247.85 7.23 246.68 8.8 244.38 9.55 242.08 10.3 238.28 10.3ZM279.47 0.4L279.47 0.4Q276.57 0.4 274.7-0.1 272.82-0.6 271.7-1.6 270.57-2.6 270.02-4.15 269.47-5.7 269.3-7.85 269.12-10 269.12-12.75L269.12-12.75Q269.12-15.6 269.35-17.75 269.57-19.9 270.2-21.48 270.82-23.05 271.95-24 273.07-24.95 274.87-25.43 276.67-25.9 279.32-25.9L279.32-25.9Q281.07-25.9 283-25.73 284.92-25.55 286.17-25.25L286.17-25.25 286.17-21.95Q285.02-22.15 283.35-22.3 281.67-22.45 280.32-22.45L280.32-22.45Q277.97-22.45 276.55-22.05 275.12-21.65 274.4-20.6 273.67-19.55 273.42-17.65 273.17-15.75 273.17-12.75L273.17-12.75Q273.17-9.7 273.42-7.78 273.67-5.85 274.45-4.83 275.22-3.8 276.65-3.43 278.07-3.05 280.42-3.05L280.42-3.05Q281.82-3.05 283.47-3.2 285.12-3.35 286.42-3.55L286.42-3.55 286.42-0.25Q285.17 0 283.22 0.2 281.27 0.4 279.47 0.4ZM303.27 0.4L303.27 0.4Q300.12 0.4 298.04 0.03 295.97-0.35 294.77-1.2 293.57-2.05 292.99-3.55 292.42-5.05 292.27-7.33 292.12-9.6 292.12-12.75L292.12-12.75Q292.12-15.9 292.27-18.18 292.42-20.45 292.99-21.95 293.57-23.45 294.77-24.3 295.97-25.15 298.04-25.53 300.12-25.9 303.27-25.9L303.27-25.9Q306.47-25.9 308.52-25.53 310.57-25.15 311.79-24.3 313.02-23.45 313.59-21.95 314.17-20.45 314.32-18.18 314.47-15.9 314.47-12.75L314.47-12.75Q314.47-9.6 314.32-7.33 314.17-5.05 313.59-3.55 313.02-2.05 311.79-1.2 310.57-0.35 308.52 0.03 306.47 0.4 303.27 0.4ZM303.27-3.05L303.27-3.05Q305.97-3.05 307.42-3.4 308.87-3.75 309.49-4.75 310.12-5.75 310.24-7.68 310.37-9.6 310.37-12.75L310.37-12.75Q310.37-15.9 310.24-17.82 310.12-19.75 309.49-20.75 308.87-21.75 307.42-22.1 305.97-22.45 303.27-22.45L303.27-22.45Q300.62-22.45 299.14-22.1 297.67-21.75 297.07-20.75 296.47-19.75 296.32-17.82 296.17-15.9 296.17-12.75L296.17-12.75Q296.17-9.6 296.32-7.68 296.47-5.75 297.07-4.75 297.67-3.75 299.14-3.4 300.62-3.05 303.27-3.05ZM332.12 0.4L332.12 0.4Q328.97 0.4 326.89 0.03 324.82-0.35 323.62-1.2 322.42-2.05 321.84-3.55 321.27-5.05 321.12-7.33 320.97-9.6 320.97-12.75L320.97-12.75Q320.97-15.9 321.12-18.18 321.27-20.45 321.84-21.95 322.42-23.45 323.62-24.3 324.82-25.15 326.89-25.53 328.97-25.9 332.12-25.9L332.12-25.9Q335.32-25.9 337.37-25.53 339.42-25.15 340.64-24.3 341.87-23.45 342.44-21.95 343.02-20.45 343.17-18.18 343.32-15.9 343.32-12.75L343.32-12.75Q343.32-9.6 343.17-7.33 343.02-5.05 342.44-3.55 341.87-2.05 340.64-1.2 339.42-0.35 337.37 0.03 335.32 0.4 332.12 0.4ZM332.12-3.05L332.12-3.05Q334.82-3.05 336.27-3.4 337.72-3.75 338.34-4.75 338.97-5.75 339.09-7.68 339.22-9.6 339.22-12.75L339.22-12.75Q339.22-15.9 339.09-17.82 338.97-19.75 338.34-20.75 337.72-21.75 336.27-22.1 334.82-22.45 332.12-22.45L332.12-22.45Q329.47-22.45 327.99-22.1 326.52-21.75 325.92-20.75 325.32-19.75 325.17-17.82 325.02-15.9 325.02-12.75L325.02-12.75Q325.02-9.6 325.17-7.68 325.32-5.75 325.92-4.75 326.52-3.75 327.99-3.4 329.47-3.05 332.12-3.05ZM354.96 0L350.86 0 350.86-37.15 354.96-37.15 354.96-14.65 358.16-14.65 367.16-25.5 371.76-25.5 361.41-13.15 371.91 0 367.16 0 358.16-11.15 354.96-11.15 354.96 0ZM381.96-32.7L377.61-32.7 377.61-37.15 381.96-37.15 381.96-32.7ZM381.81 0L377.71 0 377.71-25.5 381.81-25.5 381.81 0ZM394.51 0L390.41 0 390.41-25.5 394.11-25.5 394.26-21.85 394.56-21.85Q395.11-23.05 396.08-23.95 397.06-24.85 398.73-25.38 400.41-25.9 403.01-25.9L403.01-25.9Q405.86-25.9 407.56-25.3 409.26-24.7 410.18-23.5 411.11-22.3 411.41-20.43 411.71-18.55 411.71-15.95L411.71-15.95 411.71 0 407.66 0 407.66-14.55Q407.66-17.15 407.43-18.68 407.21-20.2 406.56-20.98 405.91-21.75 404.66-22 403.41-22.25 401.36-22.25L401.36-22.25Q398.91-22.25 397.51-21.63 396.11-21 395.46-19.83 394.81-18.65 394.66-16.98 394.51-15.3 394.51-13.15L394.51-13.15 394.51 0ZM429.71 10.3L429.71 10.3Q428.11 10.3 426.43 10.23 424.76 10.15 423.26 10.05 421.76 9.95 420.71 9.85L420.71 9.85 420.71 6.55Q421.91 6.65 423.36 6.73 424.81 6.8 426.23 6.83 427.66 6.85 428.81 6.85L428.81 6.85Q431.71 6.85 433.36 6.45 435.01 6.05 435.86 5.05 436.71 4.05 436.93 2.25 437.16 0.45 437.16-2.35L437.16-2.35 437.16-3.4 436.91-3.4Q436.26-2 435.11-1.2 433.96-0.4 432.36-0.08 430.76 0.25 428.71 0.25L428.71 0.25Q425.91 0.25 424.08-0.35 422.26-0.95 421.21-2.38 420.16-3.8 419.73-6.35 419.31-8.9 419.31-12.75L419.31-12.75Q419.31-16.65 419.76-19.2 420.21-21.75 421.26-23.2 422.31-24.65 424.13-25.28 425.96-25.9 428.76-25.9L428.76-25.9Q430.46-25.9 432.11-25.63 433.76-25.35 435.08-24.45 436.41-23.55 437.11-21.85L437.11-21.85 437.41-21.85 437.61-25.5 441.26-25.5 441.26-3.3Q441.26 0.4 440.88 3 440.51 5.6 439.36 7.2 438.21 8.8 435.91 9.55 433.61 10.3 429.71 10.3ZM430.31-3.3L430.31-3.3Q432.81-3.3 434.26-3.98 435.71-4.65 436.36-6.1L436.36-6.1Q436.91-7.3 437.03-8.95 437.16-10.6 437.16-12.8L437.16-12.8Q437.16-14.9 437.06-16.53 436.96-18.15 436.41-19.3L436.41-19.3Q435.76-20.9 434.26-21.6 432.76-22.3 430.31-22.3L430.31-22.3Q428.01-22.3 426.63-21.98 425.26-21.65 424.56-20.7 423.86-19.75 423.61-17.85 423.36-15.95 423.36-12.8L423.36-12.8Q423.36-9.65 423.61-7.75 423.86-5.85 424.56-4.9 425.26-3.95 426.63-3.63 428.01-3.3 430.31-3.3Z" opacity="1" transform="matrix(1,0,0,1,0,0)" fill="#ffffff" class="slogan-text-1" data-fill-palette-color="secondary" id="text-1"></path></svg></g></svg></g></svg></g></svg></g><g transform="matrix(1,0,0,1,130.0481915168952,0)"><svg viewBox="0 0 135.42361696620958 143.990144479859" height="143.990144479859" width="135.42361696620958"><g><svg xmlns="http://www.w3.org/2000/svg" xmlns:xlink="http://www.w3.org/1999/xlink" version="1.1" x="0" y="0" viewBox="10.115187922752673 9.994 75.31291127581333 80.077" enable-background="new 0 0 100 100" xml:space="preserve" height="143.990144479859" width="135.42361696620958" class="icon-icon-0" data-fill-palette-color="accent" id="icon-0"><g fill="#35452b" data-fill-palette-color="accent"><rect x="16.672" y="28.799" width="7.777" height="2" fill="#ffffff" data-fill-palette-color="accent"></rect></g><g fill="#35452b" data-fill-palette-color="accent"><rect x="75.361" y="28.796" width="7.776" height="2" fill="#ffffff" data-fill-palette-color="accent"></rect></g><g fill="#35452b" data-fill-palette-color="accent"><rect x="70.903" y="11.484" transform="matrix(-0.707 -0.7072 0.7072 -0.707 111.8647 77.0957)" width="2" height="7.78" fill="#ffffff" data-fill-palette-color="accent"></rect></g><g fill="#35452b" data-fill-palette-color="accent"><rect x="24.019" y="14.376" transform="matrix(-0.7072 -0.707 0.707 -0.7072 36.7725 45.9812)" width="7.776" height="2" fill="#ffffff" data-fill-palette-color="accent"></rect></g><g fill="#35452b" data-fill-palette-color="accent"><rect x="26.906" y="39.913" transform="matrix(0.7071 0.7071 -0.7071 0.7071 39.1469 -6.9031)" width="2" height="7.78" fill="#ffffff" data-fill-palette-color="accent"></rect></g><g fill="#35452b" data-fill-palette-color="accent"><rect x="68.012" y="42.802" transform="matrix(0.7072 0.707 -0.707 0.7072 52.0211 -38.0092)" width="7.777" height="2" fill="#ffffff" data-fill-palette-color="accent"></rect></g><g fill="#35452b" data-fill-palette-color="accent"><path d="M55.809 69.098H60.469A4.3 4.3 0 0 0 63.448 67.862L78.052 53.258 78.054 53.26A4.32 4.32 0 0 1 84.162 53.269 4.32 4.32 0 0 1 84.166 59.376L84.172 59.38 63.782 79.765A4.3 4.3 0 0 1 60.742 81.02C60.549 81.02 60.377 81.03 60.197 81.037L37.322 81.039C37.243 81.039 37.161 81.034 37.084 81.034L37.086 81.039C36.418 81.039 32.526 81.056 31.97 81.039A2.24 2.24 0 0 0 30.343 81.671L21.939 90.071H10.128C10.097 89.858 10.132 75.985 10.132 75.985A4.3 4.3 0 0 1 11.355 72.907L24.956 59.41 25.011 59.356 25.282 59.087H25.307C27.891 56.674 31.554 55.921 35.326 55.922L55.592 55.92A4.322 4.322 0 0 1 55.592 64.566V64.573L39.739 64.574A2.265 2.265 0 0 0 37.477 66.839 2.26 2.26 0 0 0 39.737 69.1H55.808z" fill="#ffffff" data-fill-palette-color="accent"></path></g><path d="M59.091 19.688C55.117 19.688 51.738 22.248 50.493 25.803H49.458C48.213 22.247 44.834 19.688 40.859 19.688 35.833 19.688 31.744 23.778 31.744 28.803A9.08 9.08 0 0 0 34.65 35.458H34.64L49.24 50.058H50.679L65.037 35.697A9.09 9.09 0 0 0 68.206 28.802C68.207 23.777 64.116 19.688 59.091 19.688" fill="#ffffff" data-fill-palette-color="accent"></path><g fill="#35452b" data-fill-palette-color="accent"><rect x="49" y="9.994" width="2" height="7.777" fill="#ffffff" data-fill-palette-color="accent"></rect></g></svg></g></svg></g><g></g></svg></g><defs></defs></svg><rect width="395.52" height="294.3327694765887" fill="none" stroke="none" visibility="hidden"></rect></g></svg></g></svg>